# xmcd
#
# Track frame offsets: 
#        150
#        23295
#        44790
#        62040
#        76172
#        101660
#        118180
#        137587
#        153700
#        173052
#        195442
#
# Disc length: 2946 seconds
#
# Revision: 2
# Processed by: cddbd v1.5.2PL0 Copyright (c) Steve Scherf et al.
# Submitted via: ExactAudioCopy v0.99pb5
#
DISCID=8b0b800b
DTITLE=J.J. Malone - See Me Early In The Morning
DYEAR=1999
DGENRE=Blues
TTITLE0=It's A Shaame
TTITLE1=See Me Early In The Morning
TTITLE2=Good Lookin' Woman
TTITLE3=Mother Earth
TTITLE4=Sweet Thing
TTITLE5=Nothing To Suggest
TTITLE6=Here I Go Again
TTITLE7=Peace Breakin' People
TTITLE8=Smoked Oysters
TTITLE9=Walkin' Thru The Park
TTITLE10=Leave Here Walkin'
EXTD=ID3G: 0
EXTT0=
EXTT1=
EXTT2=
EXTT3=
EXTT4=
EXTT5=
EXTT6=
EXTT7=
EXTT8=
EXTT9=
EXTT10=
PLAYORDER=
